<?xml version="1.0" encoding="UTF-8" standalone="no"?>
<svg
   xmlns:dc="http://purl.org/dc/elements/1.1/"
   xmlns:cc="http://creativecommons.org/ns#"
   xmlns:rdf="http://www.w3.org/1999/02/22-rdf-syntax-ns#"
   xmlns:svg="http://www.w3.org/2000/svg"
   xmlns="http://www.w3.org/2000/svg"
   xmlns:sodipodi="http://sodipodi.sourceforge.net/DTD/sodipodi-0.dtd"
   xmlns:inkscape="http://www.inkscape.org/namespaces/inkscape"
   version="1.1"
   width="17"
   height="17"
   viewBox="0 0 17 17"
   id="svg6"
   sodipodi:docname="arrow-circle-up.svg"
   inkscape:version="1.0.1 (3bc2e813f5, 2020-09-07)">
  <metadata
     id="metadata12">
    <rdf:RDF>
      <cc:Work
         rdf:about="">
        <dc:format>image/svg+xml</dc:format>
        <dc:type
           rdf:resource="http://purl.org/dc/dcmitype/StillImage" />
      </cc:Work>
    </rdf:RDF>
  </metadata>
  <defs
     id="defs10" />
  <sodipodi:namedview
     pagecolor="#ffffff"
     bordercolor="#666666"
     borderopacity="1"
     objecttolerance="10"
     gridtolerance="10"
     guidetolerance="10"
     inkscape:pageopacity="0"
     inkscape:pageshadow="2"
     inkscape:window-width="820"
     inkscape:window-height="480"
     id="namedview8"
     showgrid="false"
     inkscape:zoom="46.117647"
     inkscape:cx="8.5"
     inkscape:cy="8.5"
     inkscape:window-x="0"
     inkscape:window-y="25"
     inkscape:window-maximized="0"
     inkscape:current-layer="svg6" />
  <g
     id="g2"
     style="fill:#ffffff" />
  <path
     d="m 8.5,5.793 4.354,4.354 -0.707,0.707 L 8.5,7.207 4.854,10.853 4.1470001,10.146 Z M 17,8.5 C 17,13.187 13.187,17 8.5,17 3.813,17 0,13.187 0,8.5 0,3.813 3.813,0 8.5,0 13.187,0 17,3.813 17,8.5 Z m -1,0 C 16,4.364 12.636,1 8.5,1 4.364,1 0.99999999,4.364 0.99999999,8.5 0.99999999,12.636 4.364,16 8.5,16 12.636,16 16,12.636 16,8.5 Z"
     fill="#000000"
     id="path4"
     style="stroke-width:1;fill:#ffffff" />
</svg>
