<?xml version="1.0" encoding="UTF-8" standalone="no"?>
<svg
   xmlns:dc="http://purl.org/dc/elements/1.1/"
   xmlns:cc="http://creativecommons.org/ns#"
   xmlns:rdf="http://www.w3.org/1999/02/22-rdf-syntax-ns#"
   xmlns:svg="http://www.w3.org/2000/svg"
   xmlns="http://www.w3.org/2000/svg"
   xmlns:sodipodi="http://sodipodi.sourceforge.net/DTD/sodipodi-0.dtd"
   xmlns:inkscape="http://www.inkscape.org/namespaces/inkscape"
   version="1.1"
   width="17"
   height="17"
   viewBox="0 0 17 17"
   id="svg6"
   sodipodi:docname="zoom-out.svg"
   inkscape:version="1.0.1 (3bc2e813f5, 2020-09-07)">
  <metadata
     id="metadata12">
    <rdf:RDF>
      <cc:Work
         rdf:about="">
        <dc:format>image/svg+xml</dc:format>
        <dc:type
           rdf:resource="http://purl.org/dc/dcmitype/StillImage" />
      </cc:Work>
    </rdf:RDF>
  </metadata>
  <defs
     id="defs10" />
  <sodipodi:namedview
     pagecolor="#ffffff"
     bordercolor="#666666"
     borderopacity="1"
     objecttolerance="10"
     gridtolerance="10"
     guidetolerance="10"
     inkscape:pageopacity="0"
     inkscape:pageshadow="2"
     inkscape:window-width="1920"
     inkscape:window-height="1027"
     id="namedview8"
     showgrid="false"
     inkscape:zoom="46.117647"
     inkscape:cx="3.7512755"
     inkscape:cy="8.5"
     inkscape:window-x="0"
     inkscape:window-y="25"
     inkscape:window-maximized="1"
     inkscape:current-layer="svg6"
     inkscape:document-rotation="0" />
  <g
     id="g2"
     style="fill:#1a1a37;fill-opacity:1" />
  <path
     d="M16.604 15.868l-5.173-5.173c0.975-1.137 1.569-2.611 1.569-4.223 0-3.584-2.916-6.5-6.5-6.5-1.736 0-3.369 0.676-4.598 1.903-1.227 1.228-1.903 2.861-1.902 4.597 0 3.584 2.916 6.5 6.5 6.5 1.612 0 3.087-0.594 4.224-1.569l5.173 5.173 0.707-0.708zM6.5 11.972c-3.032 0-5.5-2.467-5.5-5.5-0.001-1.47 0.571-2.851 1.61-3.889 1.038-1.039 2.42-1.611 3.89-1.611 3.032 0 5.5 2.467 5.5 5.5 0 3.032-2.468 5.5-5.5 5.5zM4 5.972h5v1h-5v-1z"
     fill="#000000"
     id="path4"
     style="fill:#1a1a37;fill-opacity:1" />
</svg>
