<svg xmlns="http://www.w3.org/2000/svg" xmlns:svg="http://www.w3.org/2000/svg" id="svg8" width="1933.289" height="2063.999" version="1.1" viewBox="0 0 511.516 546.1"><defs id="defs2"><rect id="rect101" width="1231.018" height="630.593" x="-576.462" y="149.707"/></defs><metadata id="metadata5"/><g id="layer3" transform="translate(-56.667589,-15.035518)"><path id="path94" d="m 320.53226,17.408628 c -16.97418,0.005 -33.52787,0.3574 -38.93586,1.05287 -27.06952,3.48105 -49.92353,11.27984 -76.98296,26.27011 C 161.2963,68.728298 123.42857,107.56679 96.810577,155.29761 63.360971,215.27906 51.130171,278.30243 61.229371,338.64238 c 6.361704,38.00888 18.269504,66.30142 44.094939,104.76796 8.62063,12.84021 12.83371,18.18613 26.51821,33.64969 15.86574,17.92841 29.88272,30.45512 45.73469,40.87248 31.28709,20.5608 62.54375,32.60008 103.59244,39.90023 v 0.001 c 6.3118,1.12252 12.28991,1.37047 34.55752,1.43539 31.73142,0.0927 45.50056,-0.86684 65.17685,-4.54357 30.96179,-5.78562 62.246,-18.17583 93.33935,-36.96624 36.24776,-21.90531 66.98239,-52.52651 88.28613,-87.96074 2.83758,-4.71972 5.03898,-8.67313 4.89188,-8.78527 -1.2689,-0.9684 -103.94215,-58.0997 -104.41344,-58.0997 -0.34109,0 -1.39922,1.38612 -2.35104,3.07963 -6.50697,11.5777 -25.36238,32.28159 -37.60913,41.29642 -41.65979,30.66578 -92.5572,38.87145 -140.6046,22.6691 C 234.16264,413.6777 196.5544,373.2251 184.12961,324.2096 c -3.52852,-13.91991 -4.41775,-21.42736 -4.44723,-37.52009 -0.0463,-26.07235 4.36777,-45.58617 15.29287,-67.61189 25.94986,-52.31678 77.94644,-84.5843 136.30016,-84.5843 40.87681,0 78.63116,15.54873 107.26349,44.17555 7.82836,7.82688 18.82071,21.77123 23.1647,29.38559 1.23754,2.16917 2.46259,3.85478 2.72235,3.74606 0.25973,-0.10891 23.22098,-12.94917 51.02477,-28.53377 32.76394,-18.36491 50.36929,-28.63975 50.03183,-29.20022 -16.52101,-27.44306 -40.65269,-55.325702 -65.45184,-75.625972 -21.17333,-17.33223 -49.77007,-33.94113 -76.17649,-44.24332 -23.64894,-9.22646 -41.50279,-13.7754 -61.86146,-15.7605 -7.0913,-0.69202 -24.48632,-1.03351 -41.4605,-1.02823 z M 397.51353,286.3088 c -35.94438,0 -65.15101,0.20282 -64.90355,0.45027 0.24755,0.24754 29.40091,17.29684 64.78483,37.88691 35.38397,20.59007 64.59011,37.45277 64.90301,37.4725 0.31302,0.0198 0.569,-17.02947 0.569,-37.88692 V 286.3088 Z" style="fill:#ffbc3b;stroke-width:.758456;fill-opacity:1"/><path style="fill:none;stroke:#000;stroke-width:5;stroke-linecap:butt;stroke-linejoin:miter;stroke-miterlimit:4;stroke-dasharray:none;stroke-opacity:1" id="path845" d="m 462.46071,362.2282 0.40611,-75.9194 -130.19008,0.31847 z"/><path style="fill:none;stroke:#000;stroke-width:5;stroke-linecap:butt;stroke-linejoin:miter;stroke-miterlimit:4;stroke-dasharray:none;stroke-opacity:1" id="path871" d="M 464.21717,212.16917 565.416,154.59975"/><path style="fill:none;stroke:#000;stroke-width:5;stroke-linecap:butt;stroke-linejoin:miter;stroke-miterlimit:4;stroke-dasharray:none;stroke-opacity:1" id="path873" d="M 567.74881,421.31191 462.4607,362.2282"/><path style="fill:none;stroke:#000;stroke-width:5;stroke-linecap:butt;stroke-linejoin:miter;stroke-miterlimit:4;stroke-dasharray:none;stroke-opacity:1" id="path915" d="M 565.416,154.59975 C 531.60277,96.290797 475.95128,50.994214 411.99194,29.722836 393.10764,23.442361 373.54907,19.188632 353.76027,17.075667 322.93052,13.783794 291.50142,15.725759 261.44052,23.318695 224.61048,32.621418 189.95744,50.448806 160.99708,75.031128 123.58433,106.78807 96.142564,149.2937 78.278473,195.00028 61.938919,236.80622 53.274298,282.30882 58.86615,326.84474 c 4.488156,35.74562 18.01991,69.93591 36.052802,101.12417 17.709848,30.62954 40.094908,58.94493 68.214688,80.41783 22.16734,16.92748 47.58593,29.35829 74.11343,37.97352 52.50107,17.05057 109.95529,19.10387 163.23306,4.66215 69.9014,-18.9478 131.51528,-66.72702 167.26868,-129.7105"/><path style="fill:none;stroke:#000;stroke-width:5;stroke-linecap:butt;stroke-linejoin:miter;stroke-miterlimit:4;stroke-dasharray:none;stroke-opacity:1" id="path919" d="m 462.4607,362.2282 c -16.50191,28.59083 -42.53997,51.56743 -72.962,64.38339 -14.48944,6.104 -29.93244,9.95219 -45.598,11.29123 -41.55393,3.55188 -84.2185,-11.32822 -115.02282,-39.44297 -27.87832,-25.44422 -45.97339,-61.47567 -49.22161,-99.07963 -2.50393,-28.98741 3.7079,-58.64657 17.47282,-84.27988 12.83021,-23.89269 32.16374,-44.25214 55.36173,-58.29948 23.198,-14.04734 50.19867,-21.74516 77.31667,-22.04276 27.11801,-0.29761 54.28111,6.80578 77.78181,20.34063 23.5007,13.53484 43.27639,33.46509 56.62787,57.07044"/></g></svg>